<svg xmlns="http://www.w3.org/2000/svg" width="161.748" height="40.613" viewBox="0 0 161.748 40.613">
  <g id="logo_2" data-name="logo 2" transform="translate(-143 -5240.001)">
    <path id="Tracé_1" data-name="Tracé 1" d="M173.8,59.492v7.851L157.651,80.677h-3.03l-9.3-7.717V66.8l10.758,9.9Z" transform="translate(71.789 5183.437)" fill="#ffa40a"/>
    <path id="Tracé_2" data-name="Tracé 2" d="M187.536,60.44a2.845,2.845,0,0,1,2.027-4.872,2.706,2.706,0,0,1,1.988.818,2.919,2.919,0,0,1,0,4.054,2.7,2.7,0,0,1-1.988.819A2.749,2.749,0,0,1,187.536,60.44Zm4.21,3.664V85.58H187.3V64.1Z" transform="translate(61.28 5184.433)" fill="#0a84ff"/>
    <path id="Tracé_3" data-name="Tracé 3" d="M216.668,67.59a7.488,7.488,0,0,1,3.137,3.118,10.258,10.258,0,0,1,1.13,4.989V88.365h-4.4v-12a6.236,6.236,0,0,0-1.442-4.424,5.132,5.132,0,0,0-3.937-1.54,5.2,5.2,0,0,0-3.956,1.54,6.181,6.181,0,0,0-1.462,4.424v12h-4.443V66.889h4.443v2.456a7.357,7.357,0,0,1,2.787-2.066,8.916,8.916,0,0,1,3.605-.74A9.634,9.634,0,0,1,216.668,67.59Z" transform="translate(57.58 5181.647)" fill="#0a84ff"/>
    <path id="Tracé_4" data-name="Tracé 4" d="M247.767,67.532a8.5,8.5,0,0,1,3.021,2.475V66.889h4.482V88.716A10.981,10.981,0,0,1,254.022,94a9.018,9.018,0,0,1-3.605,3.644,11.321,11.321,0,0,1-5.632,1.325,12.219,12.219,0,0,1-7.25-2.047,7.549,7.549,0,0,1-3.274-5.554h4.4a4.777,4.777,0,0,0,2.164,2.709,7.331,7.331,0,0,0,3.956,1.033,5.916,5.916,0,0,0,4.346-1.637,6.4,6.4,0,0,0,1.656-4.754V85.13a9.236,9.236,0,0,1-7.445,3.586,9.6,9.6,0,0,1-5.125-1.424,10.029,10.029,0,0,1-3.664-3.975,12.23,12.23,0,0,1-1.345-5.788,11.891,11.891,0,0,1,1.345-5.73,9.8,9.8,0,0,1,8.789-5.262A9.526,9.526,0,0,1,247.767,67.532Zm2.1,6.217a6.427,6.427,0,0,0-2.4-2.494,6.273,6.273,0,0,0-3.2-.858,6.3,6.3,0,0,0-5.594,3.293,7.672,7.672,0,0,0-.916,3.84,8,8,0,0,0,.916,3.9A6.462,6.462,0,0,0,241.1,83.98a6.2,6.2,0,0,0,3.177.876,6.265,6.265,0,0,0,3.2-.857,6.387,6.387,0,0,0,2.4-2.514,7.89,7.89,0,0,0,.916-3.878A7.777,7.777,0,0,0,249.872,73.749Z" transform="translate(49.478 5181.647)" fill="#0a84ff"/>
    <path id="Tracé_5" data-name="Tracé 5" d="M53.538,63.979a9.586,9.586,0,0,1,4.385-.994,9.893,9.893,0,0,1,5.145,1.364,9.6,9.6,0,0,1,3.625,3.878,12.15,12.15,0,0,1,1.326,5.75,12.374,12.374,0,0,1-1.326,5.788,9.893,9.893,0,0,1-3.644,3.975,10.2,10.2,0,0,1-9.549.448,8.5,8.5,0,0,1-3.06-2.494v3.118H46V55.969h4.443V66.531A8.433,8.433,0,0,1,53.538,63.979Zm9.042,6.158a6.287,6.287,0,0,0-2.417-2.456,6.494,6.494,0,0,0-3.215-.838,6.31,6.31,0,0,0-3.176.857,6.381,6.381,0,0,0-2.417,2.5,7.769,7.769,0,0,0-.916,3.858,7.882,7.882,0,0,0,.916,3.878A6.336,6.336,0,0,0,56.949,81.3a6.268,6.268,0,0,0,3.215-.876,6.462,6.462,0,0,0,2.417-2.554,8,8,0,0,0,.916-3.9A7.673,7.673,0,0,0,62.58,70.137Z" transform="translate(97.004 5184.331)" fill="#0a84ff"/>
    <path id="Tracé_6" data-name="Tracé 6" d="M118.07,86.166a9.942,9.942,0,0,1-3.859-3.9,11.764,11.764,0,0,1-1.4-5.827,11.528,11.528,0,0,1,1.442-5.807,9.957,9.957,0,0,1,3.937-3.9,12.07,12.07,0,0,1,11.147,0,9.967,9.967,0,0,1,3.937,3.9,11.536,11.536,0,0,1,1.442,5.807,11.3,11.3,0,0,1-1.481,5.808,10.256,10.256,0,0,1-4.034,3.917,11.631,11.631,0,0,1-5.632,1.384A11,11,0,0,1,118.07,86.166Zm8.711-3.293a6.24,6.24,0,0,0,2.436-2.456,7.89,7.89,0,0,0,.936-3.975,8.069,8.069,0,0,0-.9-3.956,6.064,6.064,0,0,0-2.378-2.436,6.507,6.507,0,0,0-3.2-.819,6.4,6.4,0,0,0-3.177.819,5.841,5.841,0,0,0-2.319,2.436,8.354,8.354,0,0,0-.858,3.956A7.534,7.534,0,0,0,119.1,81.8a5.861,5.861,0,0,0,4.463,1.89A6.614,6.614,0,0,0,126.781,82.873Z" transform="translate(80.043 5181.944)" fill="#0a84ff"/>
    <path id="Tracé_7" data-name="Tracé 7" d="M84.839,86.166a9.942,9.942,0,0,1-3.859-3.9,11.756,11.756,0,0,1-1.4-5.827,11.528,11.528,0,0,1,1.442-5.807,9.957,9.957,0,0,1,3.937-3.9,12.072,12.072,0,0,1,11.148,0,9.967,9.967,0,0,1,3.937,3.9,11.544,11.544,0,0,1,1.442,5.807A11.3,11.3,0,0,1,100,82.249a10.259,10.259,0,0,1-4.034,3.917,11.634,11.634,0,0,1-5.633,1.384A11,11,0,0,1,84.839,86.166Zm8.711-3.293a6.24,6.24,0,0,0,2.436-2.456,7.89,7.89,0,0,0,.935-3.975,8.061,8.061,0,0,0-.9-3.956,6.062,6.062,0,0,0-2.377-2.436,6.508,6.508,0,0,0-3.2-.819,6.392,6.392,0,0,0-3.176.819,5.843,5.843,0,0,0-2.32,2.436,8.363,8.363,0,0,0-.857,3.956A7.534,7.534,0,0,0,85.871,81.8a5.859,5.859,0,0,0,4.463,1.89A6.616,6.616,0,0,0,93.55,82.873Z" transform="translate(88.479 5181.944)" fill="#0a84ff"/>
    <rect id="Rectangle_1" data-name="Rectangle 1" width="28.928" height="4.568" transform="translate(214.412 5264.983)" fill="#0a84ff"/>
  </g>
</svg>
