<svg xmlns="http://www.w3.org/2000/svg" viewBox="0 0 748.38 187.96"><defs><style>.cls-1{fill:#ffa40a;}.cls-2{fill:#fff;}</style></defs><g id="Layer_2" data-name="Layer 2"><g id="Layer_1-2" data-name="Layer 1"><path id="Tracé_1" data-name="Tracé 1" class="cls-1" d="M474.64,13.55V49.87l-74.7,61.71h-14l-43-35.71V47.38l49.78,45.8Z"/><path id="Tracé_2" data-name="Tracé 2" class="cls-2" d="M489.59,22.54A13.16,13.16,0,0,1,499,0a12.57,12.57,0,0,1,9.2,3.77,13.53,13.53,0,0,1,0,18.76,12.52,12.52,0,0,1-9.2,3.79A12.74,12.74,0,0,1,489.59,22.54Zm19.48,17v99.35H488.51V39.5Z"/><path id="Tracé_3" data-name="Tracé 3" class="cls-2" d="M607.26,42.74a34.71,34.71,0,0,1,14.52,14.43A47.55,47.55,0,0,1,627,80.25v58.61H606.63V83.32q0-13.35-6.67-20.47a23.74,23.74,0,0,0-18.22-7.12,24,24,0,0,0-18.3,7.12q-6.77,7.12-6.77,20.47v55.54H536.11V39.5h20.56V50.86a34,34,0,0,1,12.88-9.56,41.1,41.1,0,0,1,16.68-3.42A44.49,44.49,0,0,1,607.26,42.74Z"/><path id="Tracé_4" data-name="Tracé 4" class="cls-2" d="M713.67,42.46a39.41,39.41,0,0,1,14,11.46V39.5h20.74v101a50.77,50.77,0,0,1-5.78,24.43,41.74,41.74,0,0,1-16.68,16.87,52.47,52.47,0,0,1-26.07,6.13,56.6,56.6,0,0,1-33.55-9.47,34.94,34.94,0,0,1-15.15-25.7h20.38a22.08,22.08,0,0,0,10,12.53,33.88,33.88,0,0,0,18.31,4.78,27.36,27.36,0,0,0,20.1-7.57q7.66-7.58,7.67-22V123.9a42.76,42.76,0,0,1-34.45,16.59,44.37,44.37,0,0,1-23.71-6.6,46.38,46.38,0,0,1-17-18.39,56.75,56.75,0,0,1-6.22-26.78,55,55,0,0,1,6.22-26.51,45.36,45.36,0,0,1,40.67-24.35A44.18,44.18,0,0,1,713.67,42.46Zm9.73,28.77a29.71,29.71,0,0,0-11.09-11.54A29.58,29.58,0,0,0,671.64,71a35.42,35.42,0,0,0-4.23,17.77,37,37,0,0,0,4.23,18,29.94,29.94,0,0,0,11.19,11.82,29.1,29.1,0,0,0,29.48.08A29.44,29.44,0,0,0,723.4,107a36.4,36.4,0,0,0,4.24-17.94,35.86,35.86,0,0,0-4.24-17.86Z"/><path id="Tracé_5" data-name="Tracé 5" class="cls-2" d="M34.88,38.44a44.32,44.32,0,0,1,20.29-4.6A45.79,45.79,0,0,1,79,40.15,44.45,44.45,0,0,1,95.75,58.09a56.22,56.22,0,0,1,6.13,26.6,57.35,57.35,0,0,1-6.13,26.78,45.72,45.72,0,0,1-16.87,18.39,47.15,47.15,0,0,1-44.18,2.08A39.26,39.26,0,0,1,20.54,120.4v14.43H0V1.38H20.56V50.26A39,39,0,0,1,34.88,38.44ZM76.72,66.93A29.2,29.2,0,0,0,65.54,55.57,30.06,30.06,0,0,0,50.66,51.7,29.41,29.41,0,0,0,24.78,67.21a36,36,0,0,0-4.24,17.85A36.38,36.38,0,0,0,24.78,103a29.31,29.31,0,0,0,25.88,15.6,28.86,28.86,0,0,0,14.88-4,29.88,29.88,0,0,0,11.18-11.81,37,37,0,0,0,4.24-18,35.41,35.41,0,0,0-4.24-17.78Z"/><path id="Tracé_6" data-name="Tracé 6" class="cls-2" d="M255,130.06a46,46,0,0,1-17.85-18,54.35,54.35,0,0,1-6.49-27,53.32,53.32,0,0,1,6.67-26.87,45.93,45.93,0,0,1,18.22-18,55.82,55.82,0,0,1,51.58,0,46,46,0,0,1,18.21,18A53.44,53.44,0,0,1,332,85.06a52.27,52.27,0,0,1-6.86,26.87,47.51,47.51,0,0,1-18.67,18.13,53.87,53.87,0,0,1-26.07,6.4A51,51,0,0,1,255,130.06Zm40.31-15.24a28.9,28.9,0,0,0,11.27-11.36,36.51,36.51,0,0,0,4.32-18.4,37.3,37.3,0,0,0-4.14-18.3,28.07,28.07,0,0,0-11-11.27A30.09,30.09,0,0,0,281,51.7a29.55,29.55,0,0,0-14.7,3.79,26.93,26.93,0,0,0-10.73,11.27,38.53,38.53,0,0,0-4,18.3q0,16.05,8.2,24.8a27.12,27.12,0,0,0,20.66,8.74A30.59,30.59,0,0,0,295.3,114.82Z"/><path id="Tracé_7" data-name="Tracé 7" class="cls-2" d="M140.27,130.06a46,46,0,0,1-17.86-18,54.35,54.35,0,0,1-6.49-27,53.35,53.35,0,0,1,6.67-26.87,46.06,46.06,0,0,1,18.22-18,55.88,55.88,0,0,1,51.58,0,46.19,46.19,0,0,1,18.22,18,53.48,53.48,0,0,1,6.67,26.87,52.38,52.38,0,0,1-6.86,26.88,47.49,47.49,0,0,1-18.67,18.12,53.87,53.87,0,0,1-26.07,6.4A51,51,0,0,1,140.27,130.06Zm40.3-15.24a28.86,28.86,0,0,0,11.27-11.37,36.58,36.58,0,0,0,4.33-18.39A37.32,37.32,0,0,0,192,66.75a28.11,28.11,0,0,0-11-11.27,30.15,30.15,0,0,0-14.79-3.78,29.54,29.54,0,0,0-14.7,3.78,27,27,0,0,0-10.73,11.28,38.65,38.65,0,0,0-4,18.3q0,16.05,8.2,24.8a27.11,27.11,0,0,0,20.65,8.74,30.6,30.6,0,0,0,14.88-3.78Z"/><rect id="Rectangle_1" data-name="Rectangle 1" class="cls-2" x="330.41" y="115.59" width="133.85" height="21.13"/></g></g></svg>